<?xml version="1.0" encoding="UTF-8" standalone="no"?>
<!-- Created with Inkscape (http://www.inkscape.org/) -->

<svg
   width="42.341965mm"
   height="42.962395mm"
   viewBox="0 0 42.341964 42.962394"
   version="1.1"
   id="svg5"
   xml:space="preserve"
   sodipodi:docname="logo.svg"
   inkscape:version="1.2.2 (732a01da63, 2022-12-09)"
   xmlns:inkscape="http://www.inkscape.org/namespaces/inkscape"
   xmlns:sodipodi="http://sodipodi.sourceforge.net/DTD/sodipodi-0.dtd"
   xmlns="http://www.w3.org/2000/svg"
   xmlns:svg="http://www.w3.org/2000/svg"><sodipodi:namedview
     id="namedview7"
     pagecolor="#505050"
     bordercolor="#eeeeee"
     borderopacity="1"
     inkscape:showpageshadow="0"
     inkscape:pageopacity="0"
     inkscape:pagecheckerboard="0"
     inkscape:deskcolor="#505050"
     inkscape:document-units="mm"
     showgrid="false"
     inkscape:zoom="2.8284271"
     inkscape:cx="357.44248"
     inkscape:cy="158.5687"
     inkscape:window-width="1920"
     inkscape:window-height="1009"
     inkscape:window-x="-8"
     inkscape:window-y="-8"
     inkscape:window-maximized="1"
     inkscape:current-layer="text2648" /><defs
     id="defs2"><rect
       x="377.24147"
       y="12.020815"
       width="179.60512"
       height="224.15285"
       id="rect2650" /><inkscape:path-effect
       effect="fillet_chamfer"
       id="path-effect1637"
       is_visible="true"
       lpeversion="1"
       nodesatellites_param="F,0,0,1,0,0,0,1 @ F,0,0,1,0,0,0,1 @ F,0,0,1,0,0,0,1 @ F,0,0,1,0,0,0,1 @ F,0,0,1,0,0,0,1 @ F,0,0,1,0,0,0,1 @ F,0,0,1,0,0,0,1 @ F,0,0,1,0,0,0,1"
       unit="px"
       method="auto"
       mode="F"
       radius="0"
       chamfer_steps="1"
       flexible="false"
       use_knot_distance="true"
       apply_no_radius="true"
       apply_with_radius="true"
       only_selected="false"
       hide_knots="false" /></defs><g
     inkscape:label="Layer 1"
     inkscape:groupmode="layer"
     id="layer1"
     transform="translate(-3.7041666,27.976128)"><path
       id="path2333"
       style="font-size:12.3472px;line-height:1.25;fill:#000000;fill-opacity:1;stroke:none;stroke-width:1.44503;stroke-linecap:round;stroke-linejoin:round;stroke-dasharray:none;stroke-opacity:1;paint-order:markers stroke fill"
       d="m 39.140878,9.7446965 c 2.188218,0 3.949828,-1.761609 3.949828,-3.949829 V -21.305476 c 0,-2.18822 -1.76161,-3.94983 -3.949828,-3.94983 H 12.040535 c -2.1882196,0 -3.9498286,1.76161 -3.9498286,3.94983 V 5.7948665 c 0,2.18822 1.761609,3.949829 3.9498286,3.949829 9.97757,-1e-6 17.969132,10e-7 27.100343,10e-7 z"
       sodipodi:nodetypes="csssssscc"
       inkscape:export-filename="logo.png"
       inkscape:export-xdpi="96"
       inkscape:export-ydpi="96" /><path
       id="rect1559"
       style="font-size:12.3472px;line-height:1.25;fill:#664fff;fill-opacity:1;stroke:none;stroke-width:1.44503;stroke-linecap:round;stroke-linejoin:round;stroke-dasharray:none;stroke-opacity:1;paint-order:markers stroke fill"
       d="m 12.040536,-25.255306 c -2.1882206,0 -3.9498296,1.76161 -3.9498296,3.949829 V 5.7948665 c 0,2.18822 1.761609,3.949829 3.9498296,3.949829 H 32.9967 c -0.0022,-0.02361 -0.0036,-0.0475 -0.0036,-0.07238 0,-0.186743 0.05658,-0.336924 0.170247,-0.450593 0.11367,-0.11367 0.259736,-0.170247 0.438361,-0.170247 0.324768,0 0.609185,-0.07303 0.852763,-0.21918 0.243576,-0.138025 0.434389,-0.328839 0.572417,-0.572417 0.146147,-0.243579 0.21918,-0.523882 0.21918,-0.84053 v -4.972329 c 0,-0.186744 0.05658,-0.336924 0.170247,-0.450594 0.121789,-0.11367 0.272478,-0.170756 0.451103,-0.170756 0.186742,0 0.336923,0.05709 0.450593,0.170756 0.113671,0.11367 0.170247,0.26385 0.170247,0.450594 v 4.972329 c 0,0.560227 -0.126006,1.055516 -0.377703,1.485837 -0.191156,0.337707 -0.440594,0.616834 -0.746742,0.839511 h 3.777016 c 2.188219,0 3.949829,-1.761609 3.949829,-3.949829 V -21.305477 c 0,-2.188219 -1.76161,-3.949829 -3.949829,-3.949829 z m 19.515182,0.136096 c 0.186744,0 0.336926,0.05658 0.450593,0.170247 0.11367,0.11367 0.170758,0.264359 0.170758,0.451103 v 5.553411 c 0,0.641423 -0.150181,1.217971 -0.450594,1.729485 -0.292294,0.511511 -0.690374,0.917309 -1.193767,1.217723 -0.503394,0.292292 -1.071714,0.43836 -1.705017,0.43836 -0.633301,0 -1.205737,-0.146068 -1.717251,-0.43836 -0.503392,-0.300414 -0.905079,-0.706212 -1.20549,-1.217723 -0.292294,-0.511514 -0.43836,-1.088062 -0.43836,-1.729485 0,-0.64142 0.133724,-1.213855 0.401661,-1.71725 0.276052,-0.511512 0.649451,-0.913197 1.120366,-1.20549 0.470918,-0.300413 1.002721,-0.451104 1.595427,-0.451104 0.479035,0 0.92186,0.101834 1.327824,0.304813 0.405961,0.194863 0.746954,0.462821 1.02301,0.803831 v -3.288211 c 0,-0.186744 0.05658,-0.337433 0.170247,-0.451103 0.121789,-0.113669 0.27197,-0.170247 0.450593,-0.170247 z m 5.760868,2.800917 c 0.633303,0 1.177448,0.142463 1.632128,0.426637 0.454676,0.276055 0.799275,0.661794 1.034733,1.157067 0.243578,0.487157 0.36547,1.051363 0.36547,1.692783 0,0.154267 -0.05246,0.283877 -0.158014,0.389427 -0.105549,0.09743 -0.239784,0.146291 -0.402169,0.146291 h -4.631326 c 0.04489,0.277576 0.135205,0.533268 0.271171,0.76713 0.202982,0.349129 0.483282,0.625316 0.840531,0.828297 0.357246,0.202982 0.767158,0.304303 1.229957,0.304303 0.251697,0 0.507823,-0.04424 0.76764,-0.133547 0.267935,-0.09743 0.482921,-0.207491 0.645307,-0.32928 0.121786,-0.08932 0.2514,-0.133546 0.389426,-0.133546 0.146146,-0.0081 0.272153,0.03251 0.377704,0.121823 0.138027,0.121789 0.21106,0.255514 0.219179,0.40166 0.0081,0.146148 -0.05669,0.272155 -0.194712,0.377703 -0.276056,0.219221 -0.621162,0.39769 -1.035245,0.535718 -0.405961,0.138028 -0.795815,0.206946 -1.169299,0.206946 -0.673898,0 -1.274622,-0.141952 -1.802375,-0.426127 -0.51963,-0.292293 -0.929543,-0.690371 -1.229956,-1.193766 -0.292295,-0.511512 -0.43836,-1.095782 -0.43836,-1.753441 0,-0.66578 0.137837,-1.250558 0.413893,-1.75395 0.284174,-0.511514 0.674025,-0.909084 1.169301,-1.193258 0.495272,-0.292291 1.063596,-0.43887 1.705016,-0.43887 z m 0,1.047477 c -0.462796,0 -0.860877,0.101832 -1.193767,0.304814 -0.32477,0.202982 -0.572161,0.482772 -0.742663,0.84002 -0.09732,0.199287 -0.166705,0.414785 -0.208476,0.645817 h 4.055851 c -0.03581,-0.270169 -0.108522,-0.518119 -0.21816,-0.743173 -0.154267,-0.324772 -0.373368,-0.580388 -0.657541,-0.767131 -0.284175,-0.186741 -0.62928,-0.280347 -1.035244,-0.280347 z m -8.488895,0.04893 c -0.405962,0 -0.775246,0.101322 -1.108133,0.304304 -0.324772,0.194863 -0.584502,0.462821 -0.779364,0.80383 -0.186743,0.341009 -0.280348,0.730862 -0.280348,1.1693 0,0.430322 0.09361,0.820172 0.280348,1.169301 0.194862,0.349127 0.454592,0.624806 0.779364,0.827787 0.332887,0.194862 0.702171,0.29258 1.108133,0.29258 0.414083,0 0.783872,-0.09772 1.108644,-0.29258 0.324768,-0.202981 0.580387,-0.47866 0.76713,-0.827787 0.186743,-0.349129 0.279836,-0.738979 0.279836,-1.169301 0,-0.438438 -0.09309,-0.828291 -0.279836,-1.1693 -0.186743,-0.341009 -0.442362,-0.608967 -0.76713,-0.80383 -0.324772,-0.202982 -0.694561,-0.304304 -1.108644,-0.304304 z m 5.103328,10.145999 c 0.462795,0 0.872709,0.101322 1.229957,0.304304 0.278222,0.158079 0.506863,0.375664 0.686594,0.651933 0.19758,-0.249545 0.439223,-0.454729 0.725843,-0.615233 0.41408,-0.227339 0.885195,-0.341004 1.412947,-0.341004 0.462796,0 0.872709,0.101322 1.229957,0.304304 0.357246,0.20298 0.633434,0.503342 0.828297,0.9011875 0.202981,0.389725 0.304303,0.864952 0.304303,1.42518 v 3.482925 c 0,0.178621 -0.05658,0.328804 -0.170247,0.450593 -0.11367,0.11367 -0.26385,0.170756 -0.450593,0.170756 -0.178624,0 -0.328807,-0.05708 -0.450593,-0.170756 -0.11367,-0.121789 -0.170758,-0.271972 -0.170758,-0.450593 v -3.482925 c 0,-0.511514 -0.126006,-0.889024 -0.377703,-1.1326 -0.251698,-0.251697 -0.580347,-0.377704 -0.98631,-0.377704 -0.422199,0 -0.771422,0.146067 -1.047477,0.438361 -0.267933,0.292291 -0.40166,0.665687 -0.40166,1.120367 v 3.434501 c 0,0.178621 -0.05708,0.328804 -0.170757,0.450593 -0.0071,0.0071 -0.01402,0.01424 -0.0214,0.0209 -0.0074,0.0067 -0.01526,0.01315 -0.02293,0.01937 -0.0077,0.0062 -0.01549,0.01206 -0.02345,0.01784 -0.008,0.0058 -0.01571,0.01098 -0.02396,0.01631 -0.0083,0.0053 -0.01696,0.01092 -0.02549,0.0158 -0.0085,0.0049 -0.01718,0.0094 -0.026,0.01376 -0.0088,0.0044 -0.01791,0.0088 -0.02702,0.01274 -0.0091,0.004 -0.01814,0.0077 -0.02752,0.01121 -0.0094,0.0036 -0.01887,0.0071 -0.02855,0.01019 -0.04837,0.01555 -0.100471,0.02512 -0.155974,0.02956 -0.0222,0.0018 -0.04496,0.0031 -0.06831,0.0031 -0.17862,0 -0.328803,-0.05708 -0.450592,-0.170756 -0.113671,-0.121794 -0.170247,-0.271977 -0.170247,-0.450598 v -3.482941 c 0,-0.511514 -0.126007,-0.889024 -0.377704,-1.1326 -0.251697,-0.251697 -0.580347,-0.377704 -0.98631,-0.377704 -0.4222,0 -0.771424,0.146067 -1.047477,0.438361 -0.276055,0.292291 -0.414403,0.665687 -0.414403,1.120367 v 3.434501 c 0,0.178621 -0.05658,0.328804 -0.170247,0.450593 -0.0071,0.0071 -0.01453,0.01424 -0.02192,0.0209 -0.0074,0.0067 -0.01476,0.01315 -0.02243,0.01937 -0.0077,0.0062 -0.01549,0.01206 -0.02345,0.01784 -0.008,0.0058 -0.01622,0.01098 -0.02446,0.01631 -0.0083,0.0053 -0.01644,0.01092 -0.02498,0.0158 -0.0085,0.0049 -0.01718,0.0094 -0.026,0.01376 -0.0088,0.0044 -0.01791,0.0088 -0.02702,0.01274 -0.0091,0.004 -0.01814,0.0077 -0.02753,0.01122 -0.0094,0.0036 -0.01887,0.0071 -0.02855,0.01019 -0.04836,0.01555 -0.100471,0.02512 -0.155973,0.02956 -0.0222,0.0018 -0.04496,0.0031 -0.06831,0.0031 -0.02233,0 -0.04432,-0.0013 -0.06575,-0.0031 -0.02144,-0.0018 -0.04215,-0.0041 -0.06269,-0.0077 -0.123312,-0.02132 -0.230805,-0.0748 -0.322143,-0.160053 -0.01421,-0.01522 -0.02784,-0.03078 -0.04026,-0.04689 -0.08703,-0.112781 -0.130489,-0.247405 -0.130489,-0.403698 v -5.4193155 c 0,-0.116714 0.02237,-0.219191 0.06678,-0.307362 0.0044,-0.0088 0.0089,-0.01747 0.01376,-0.02599 0.02442,-0.04266 0.05469,-0.08171 0.09022,-0.117236 0.121787,-0.113669 0.271969,-0.170756 0.450593,-0.170756 0.186744,0 0.336924,0.05709 0.450594,0.170756 0.109536,0.109536 0.165754,0.253324 0.169737,0.430714 0.128088,-0.126779 0.270489,-0.238 0.427146,-0.333357 0.373485,-0.227339 0.799853,-0.341004 1.278891,-0.341004 z m -7.563242,0.01223 c 0.6333,0 1.176939,0.141953 1.631617,0.426127 0.454679,0.276053 0.799787,0.6617915 1.035243,1.1570675 0.243578,0.487154 0.36547,1.051363 0.36547,1.692783 0,0.154266 -0.05247,0.283877 -0.158012,0.389427 -0.105552,0.09743 -0.239787,0.14629 -0.40217,0.14629 h -4.631327 c 0.04489,0.277579 0.135208,0.533269 0.271171,0.767131 0.202982,0.349127 0.483283,0.625315 0.840531,0.828297 0.357245,0.202979 0.767161,0.304303 1.229957,0.304303 0.251697,0 0.507316,-0.04424 0.76713,-0.133547 0.267936,-0.09743 0.483432,-0.206984 0.645817,-0.32877 0.0609,-0.04465 0.123642,-0.07859 0.188597,-0.100925 0.01624,-0.0056 0.03244,-0.01008 0.04893,-0.01427 0.04948,-0.01256 0.100136,-0.01886 0.151897,-0.01886 0.146146,-0.0081 0.272152,0.03251 0.377703,0.121822 0.138028,0.121789 0.211061,0.255515 0.21918,0.401661 0.0081,0.146145 -0.05669,0.272153 -0.194713,0.377703 -0.276056,0.21922 -0.621163,0.39769 -1.035243,0.535717 -0.405964,0.138028 -0.795815,0.206947 -1.169301,0.206947 -0.673898,0 -1.274624,-0.141954 -1.802374,-0.426127 -0.519633,-0.292294 -0.929544,-0.689862 -1.229957,-1.193257 -0.292291,-0.511512 -0.43836,-1.096289 -0.43836,-1.753951 0,-0.665777 0.137838,-1.250556 0.413894,-1.75395 0.284172,-0.511512 0.674023,-0.9090835 1.1693,-1.1932575 0.495273,-0.292293 1.063594,-0.43836 1.705017,-0.43836 z m 0,1.046967 c -0.462799,0 -0.860877,0.1018315 -1.193768,0.3048145 -0.324768,0.202979 -0.572159,0.482774 -0.742663,0.840019 -0.09732,0.199287 -0.166704,0.414785 -0.208476,0.645818 h 4.055851 c -0.03581,-0.27017 -0.10852,-0.51812 -0.21816,-0.743174 -0.154267,-0.324769 -0.373366,-0.580388 -0.657541,-0.76713 -0.284174,-0.186744 -0.629282,-0.2803475 -1.035243,-0.2803475 z m 9.499672,9.15102349 c 0.21922,0 0.405917,0.08126 0.560183,0.243647 0.162386,0.154266 0.243138,0.340964 0.243138,0.560184 0,0.21922 -0.08075,0.410031 -0.243138,0.572416 -0.154266,0.154266 -0.340963,0.231413 -0.560183,0.231413 -0.219221,0 -0.410031,-0.07714 -0.572417,-0.231413 -0.154265,-0.162385 -0.231413,-0.353196 -0.231413,-0.572416 0,-0.21922 0.07715,-0.405918 0.231413,-0.560184 0.162386,-0.162385 0.353196,-0.243647 0.572417,-0.243647 z m 3.677638,0 c 0.219217,0 0.405915,0.08127 0.560184,0.243647 0.162382,0.154266 0.243646,0.340964 0.243646,0.560184 0,0.21922 -0.08127,0.410031 -0.243646,0.572416 -0.154269,0.154265 -0.340967,0.231413 -0.560184,0.231413 -0.219224,0 -0.410034,-0.07714 -0.572417,-0.231413 -0.154266,-0.162385 -0.231414,-0.353196 -0.231414,-0.572416 0,-0.21922 0.07714,-0.405918 0.231414,-0.560184 0.142085,-0.142087 0.305767,-0.222304 0.491371,-0.240079 0.02651,-0.0026 0.05364,-0.0036 0.08105,-0.0036 z M 30.106581,1.7772375 c 0.08119,0 0.161167,0.0021 0.240079,0.0066 0.07891,0.0045 0.156823,0.01177 0.233452,0.0209 0.07663,0.0092 0.151969,0.02046 0.226316,0.03415 0.07434,0.0137 0.147627,0.02965 0.21969,0.04792 0.07207,0.01827 0.142774,0.03884 0.212553,0.06168 0.06978,0.02284 0.138433,0.04804 0.205928,0.07544 0.0675,0.0274 0.134091,0.05673 0.199301,0.08869 0.06521,0.03197 0.129241,0.06643 0.192165,0.102965 0.06292,0.03552 0.123995,0.07257 0.183499,0.111628 0.05951,0.03907 0.117223,0.08023 0.173305,0.122843 0.05608,0.04261 0.110452,0.08688 0.163112,0.133038 0.05266,0.04616 0.103682,0.09403 0.152916,0.14374 0.04923,0.04971 0.09691,0.101179 0.142722,0.154446 0.04581,0.05326 0.08964,0.108328 0.132017,0.16515 0.04238,0.05683 0.08338,0.115475 0.122334,0.175853 0.03895,0.06038 0.07611,0.122619 0.111628,0.186559 0.03654,0.06292 0.071,0.127208 0.102964,0.192674 0.03197,0.06547 0.06129,0.132313 0.08869,0.20032 0.0274,0.06801 0.0526,0.136909 0.07544,0.207457 0.02283,0.07054 0.04341,0.142527 0.06168,0.215612 0.01827,0.07308 0.03422,0.147636 0.04792,0.223257 0.0137,0.07563 0.02502,0.152238 0.03415,0.230395 0.0092,0.07816 0.01633,0.157859 0.0209,0.23855 0.0045,0.08069 0.0066,0.162463 0.0066,0.245685 0,0.0822 -0.0022,0.163208 -0.0066,0.243137 -0.0044,0.07993 -0.01098,0.158861 -0.01988,0.23651 -0.0089,0.07765 -0.0203,0.154007 -0.03364,0.229375 -0.01335,0.07537 -0.0286,0.149663 -0.04639,0.222748 -0.01778,0.07308 -0.03793,0.144811 -0.06015,0.215613 -0.02222,0.0708 -0.04674,0.14047 -0.0734,0.208985 -0.02666,0.06851 -0.05556,0.136131 -0.08665,0.202359 -0.03109,0.06623 -0.06438,0.131285 -0.09991,0.195223 -0.03552,0.06292 -0.07269,0.124391 -0.111628,0.18401 -0.03894,0.05962 -0.07946,0.1175 -0.121824,0.173815 -0.04236,0.05631 -0.08675,0.111116 -0.132527,0.16413 -0.04578,0.05301 -0.09301,0.104222 -0.142212,0.153936 -0.0492,0.04971 -0.100288,0.09784 -0.152917,0.144251 -0.05263,0.04642 -0.107052,0.09093 -0.16311,0.134056 -0.05605,0.04312 -0.113815,0.08454 -0.173305,0.124372 -0.05949,0.03983 -0.120576,0.07815 -0.183499,0.114687 -0.06292,0.03552 -0.126827,0.06883 -0.192166,0.09991 -0.06534,0.03108 -0.132059,0.06002 -0.19981,0.08665 -0.06775,0.02663 -0.136784,0.0512 -0.206948,0.0734 -0.07016,0.02219 -0.141507,0.04188 -0.214083,0.05964 -0.07258,0.01775 -0.146234,0.03307 -0.221218,0.04639 -0.07498,0.01332 -0.151472,0.02477 -0.228864,0.03364 -0.07739,0.0089 -0.155691,0.01545 -0.235492,0.01987 -0.0798,0.0044 -0.16093,0.0066 -0.243137,0.0066 -0.0822,0 -0.163336,-0.0022 -0.243137,-0.0066 -0.0798,-0.0044 -0.158098,-0.01101 -0.235491,-0.01987 -0.07739,-0.0089 -0.153881,-0.02033 -0.228865,-0.03364 -0.07498,-0.01332 -0.148645,-0.02863 -0.221219,-0.04639 -0.07258,-0.01775 -0.143919,-0.03744 -0.214083,-0.05964 -0.07016,-0.02219 -0.139196,-0.04676 -0.206946,-0.0734 -0.06775,-0.02663 -0.134473,-0.05557 -0.199811,-0.08665 -0.06534,-0.03108 -0.129241,-0.06438 -0.192165,-0.09991 -0.06292,-0.03654 -0.124391,-0.07486 -0.18401,-0.114687 -0.05962,-0.03983 -0.1175,-0.08125 -0.173814,-0.124372 -0.05631,-0.04312 -0.111117,-0.08764 -0.164131,-0.134056 -0.05302,-0.04642 -0.104222,-0.09453 -0.153935,-0.144251 -0.04971,-0.04971 -0.09784,-0.100924 -0.144252,-0.153936 -0.04642,-0.05302 -0.09093,-0.107816 -0.134056,-0.16413 -0.04312,-0.05631 -0.08454,-0.114197 -0.124372,-0.173815 -0.03983,-0.05962 -0.07815,-0.121085 -0.114687,-0.18401 -0.03552,-0.06394 -0.06881,-0.128995 -0.09991,-0.195223 -0.03109,-0.06622 -0.05999,-0.133844 -0.08665,-0.202359 -0.02666,-0.06851 -0.05117,-0.138185 -0.0734,-0.208985 -0.02222,-0.0708 -0.04237,-0.142528 -0.06015,-0.215613 -0.01778,-0.07308 -0.03304,-0.14738 -0.04639,-0.222748 -0.01335,-0.07537 -0.02475,-0.151725 -0.03364,-0.229375 -0.0089,-0.07765 -0.01543,-0.156581 -0.01987,-0.23651 -0.0044,-0.07992 -0.0066,-0.160929 -0.0066,-0.243137 0,-0.08322 0.0022,-0.164995 0.0066,-0.245685 0.0044,-0.08069 0.01098,-0.160393 0.01987,-0.23855 0.0089,-0.07816 0.0203,-0.154772 0.03364,-0.230395 0.01335,-0.07563 0.0286,-0.150172 0.04639,-0.223257 0.01778,-0.07308 0.03793,-0.145065 0.06015,-0.215612 0.02222,-0.07055 0.04674,-0.139449 0.0734,-0.207457 0.02666,-0.06801 0.05556,-0.134853 0.08665,-0.20032 0.03109,-0.06547 0.06438,-0.12975 0.09991,-0.192674 0.03654,-0.06394 0.07486,-0.126179 0.114687,-0.186559 0.03983,-0.06037 0.08125,-0.119031 0.124372,-0.175853 0.04312,-0.05682 0.08764,-0.111884 0.134056,-0.16515 0.04642,-0.05326 0.09453,-0.104732 0.144252,-0.154446 0.04971,-0.04971 0.100923,-0.09758 0.153935,-0.14374 0.05302,-0.04616 0.107816,-0.09042 0.164131,-0.133038 0.05631,-0.04261 0.114196,-0.08377 0.173814,-0.122843 0.05962,-0.03907 0.121085,-0.07611 0.18401,-0.111628 0.06292,-0.03654 0.126826,-0.071 0.192165,-0.102965 0.06534,-0.03197 0.132059,-0.06129 0.199811,-0.08869 0.06775,-0.0274 0.136783,-0.0526 0.206946,-0.07544 0.07016,-0.02283 0.141509,-0.04341 0.214083,-0.06168 0.07258,-0.01827 0.146235,-0.03422 0.221219,-0.04792 0.07498,-0.0137 0.151472,-0.02502 0.228865,-0.03415 0.07739,-0.0092 0.15569,-0.01633 0.235491,-0.0209 0.0798,-0.0045 0.160929,-0.0066 0.243136,-0.0066 z m 9.438506,0.04842 c 0.04669,0 0.09092,0.0036 0.133037,0.0107 0.04212,0.0071 0.08223,0.01787 0.119785,0.03212 0.03755,0.01424 0.07253,0.03218 0.105512,0.05352 0.03298,0.02134 0.06385,0.046 0.09225,0.07442 0.02842,0.02842 0.05309,0.05928 0.07442,0.09225 0.02134,0.03298 0.03928,0.06796 0.05352,0.105513 0.01424,0.03755 0.02499,0.07767 0.03212,0.119784 0.0071,0.04212 0.0107,0.08635 0.0107,0.133038 v 5.419355 c 0,0.04465 -0.0036,0.08734 -0.0107,0.12845 -0.0071,0.0411 -0.01787,0.0807 -0.03212,0.118255 -0.01424,0.03755 -0.03218,0.07304 -0.05352,0.107041 -0.02134,0.034 -0.04601,0.0664 -0.07442,0.09685 -0.02842,0.02842 -0.05928,0.05309 -0.09225,0.07442 -0.03298,0.02133 -0.06796,0.03928 -0.105512,0.05352 -0.03755,0.01424 -0.07767,0.02499 -0.119785,0.03212 -0.04212,0.0071 -0.08635,0.0107 -0.133037,0.0107 -0.04465,0 -0.08735,-0.0036 -0.12845,-0.0107 -0.0411,-0.0071 -0.08071,-0.01787 -0.118255,-0.03212 -0.03755,-0.01424 -0.07304,-0.03218 -0.107042,-0.05352 -0.034,-0.02134 -0.0664,-0.046 -0.09685,-0.07442 -0.02842,-0.03045 -0.05313,-0.06285 -0.07442,-0.09685 -0.02129,-0.034 -0.03935,-0.06949 -0.05352,-0.107041 -0.01417,-0.03755 -0.02452,-0.07715 -0.0316,-0.118255 -0.0071,-0.0411 -0.0107,-0.08379 -0.0107,-0.12845 v -5.419355 c 0,-0.04668 0.0036,-0.09092 0.0107,-0.133038 0.0071,-0.04212 0.01743,-0.08223 0.0316,-0.119784 0.01417,-0.03755 0.03224,-0.07253 0.05352,-0.105513 0.02129,-0.03298 0.046,-0.06384 0.07442,-0.09225 0.03045,-0.02842 0.06285,-0.05309 0.09685,-0.07442 0.034,-0.02134 0.06949,-0.03928 0.107042,-0.05352 0.03755,-0.01424 0.07715,-0.02499 0.118255,-0.03212 0.0411,-0.0071 0.08379,-0.0107 0.12845,-0.0107 z m -9.438506,1.047482 c -0.05278,0 -0.104725,0.0016 -0.155975,0.0046 -0.05125,0.0031 -0.101661,0.0077 -0.151387,0.01376 -0.04972,0.0061 -0.0986,0.01382 -0.146799,0.02293 -0.0482,0.0091 -0.09604,0.01944 -0.142722,0.0316 -0.04669,0.01216 -0.09246,0.02608 -0.137625,0.04129 -0.04516,0.01521 -0.08939,0.03169 -0.133037,0.04995 -0.04364,0.01826 -0.08684,0.03833 -0.128959,0.05964 -0.04212,0.02131 -0.08327,0.04394 -0.123863,0.06831 -0.0406,0.02435 -0.08033,0.04968 -0.118765,0.07645 -0.03844,0.02677 -0.07535,0.05492 -0.111629,0.08411 -0.03628,0.02919 -0.07191,0.05965 -0.106022,0.09124 -0.03412,0.03159 -0.06693,0.06437 -0.09889,0.09838 -0.03196,0.034 -0.06296,0.0691 -0.09277,0.105512 -0.02981,0.03642 -0.05849,0.07433 -0.08614,0.113158 -0.02765,0.03882 -0.05402,0.07856 -0.07952,0.119784 -0.0255,0.04123 -0.05006,0.08379 -0.0734,0.12743 -0.02335,0.04263 -0.04532,0.08621 -0.06575,0.130489 -0.02043,0.04428 -0.03906,0.08914 -0.05658,0.135077 -0.01752,0.04594 -0.03382,0.09259 -0.04842,0.140173 -0.0146,0.04758 -0.02756,0.09603 -0.03925,0.14527 -0.01169,0.04923 -0.02233,0.09949 -0.03109,0.150368 -0.0088,0.05089 -0.01607,0.102425 -0.02192,0.154955 -0.0058,0.05253 -0.0099,0.105877 -0.01274,0.160052 -0.003,0.05418 -0.0046,0.10933 -0.0046,0.16515 0,0.05582 0.0017,0.110975 0.0046,0.16515 0.003,0.05417 0.0069,0.107522 0.01274,0.160052 0.0058,0.05254 0.01315,0.104072 0.02192,0.154955 0.0088,0.05089 0.0194,0.101134 0.03109,0.150369 0.01169,0.04923 0.02465,0.09769 0.03925,0.145269 0.0146,0.04758 0.0309,0.09424 0.04842,0.140174 0.01752,0.04594 0.03615,0.0908 0.05658,0.135076 0.02043,0.04428 0.04241,0.08787 0.06575,0.130489 0.02335,0.04262 0.04791,0.08403 0.0734,0.124371 0.0255,0.04034 0.05186,0.07969 0.07952,0.117746 0.02765,0.03806 0.05634,0.07484 0.08614,0.11061 0.02981,0.03578 0.06081,0.07049 0.09277,0.103983 0.03196,0.0335 0.06477,0.06563 0.09889,0.09685 0.03412,0.03121 0.06975,0.06129 0.106022,0.09022 0.03628,0.02893 0.07319,0.05695 0.111629,0.0836 0.03844,0.02664 0.07817,0.0521 0.118765,0.07646 0.0406,0.02435 0.08175,0.04699 0.123863,0.06831 0.04212,0.0213 0.08532,0.04138 0.128959,0.05964 0.04364,0.01826 0.08788,0.03474 0.133037,0.04995 0.04516,0.01521 0.09094,0.02912 0.137625,0.04129 0.04669,0.01216 0.09451,0.02248 0.142722,0.0316 0.0482,0.0091 0.09707,0.01686 0.146799,0.02294 0.04972,0.0061 0.100137,0.01072 0.151387,0.01376 0.05125,0.0031 0.103199,0.0046 0.155975,0.0046 0.05277,0 0.104724,-0.0016 0.155975,-0.0046 0.05125,-0.0031 0.101661,-0.0077 0.151387,-0.01376 0.04972,-0.0061 0.0986,-0.01382 0.1468,-0.02294 0.0482,-0.0091 0.09604,-0.01944 0.142722,-0.0316 0.04669,-0.01216 0.09246,-0.02608 0.137624,-0.04129 0.04516,-0.01521 0.0894,-0.03169 0.133038,-0.04995 0.04364,-0.01826 0.08684,-0.03833 0.128959,-0.05964 0.04212,-0.02131 0.08327,-0.04394 0.123862,-0.06831 0.0406,-0.02435 0.07994,-0.04981 0.118255,-0.07646 0.03832,-0.02664 0.07559,-0.05466 0.11163,-0.0836 0.03604,-0.02893 0.07124,-0.05901 0.105002,-0.09022 0.03376,-0.03121 0.06638,-0.06336 0.09787,-0.09685 0.03148,-0.0335 0.06153,-0.06821 0.09073,-0.103983 0.0292,-0.03578 0.05719,-0.07255 0.08411,-0.11061 0.02691,-0.03806 0.05286,-0.0774 0.07748,-0.117746 0.02462,-0.04034 0.04802,-0.08175 0.07034,-0.124371 0.02335,-0.04263 0.04533,-0.08621 0.06575,-0.130489 0.02042,-0.04428 0.03908,-0.08914 0.05658,-0.135076 0.0175,-0.04594 0.03385,-0.09259 0.04842,-0.140174 0.01457,-0.04758 0.02759,-0.09603 0.03925,-0.145269 0.01166,-0.04923 0.02185,-0.09949 0.03059,-0.150369 0.0088,-0.05089 0.0161,-0.102425 0.02192,-0.154955 0.0058,-0.05253 0.0099,-0.105877 0.01274,-0.160052 0.003,-0.05417 0.0046,-0.10933 0.0046,-0.16515 0,-0.05582 -0.0017,-0.110974 -0.0046,-0.16515 -0.003,-0.05417 -0.0069,-0.107522 -0.01274,-0.160052 -0.0058,-0.05253 -0.01318,-0.104072 -0.02192,-0.154955 -0.0088,-0.05089 -0.01893,-0.101134 -0.03059,-0.150368 -0.01165,-0.04923 -0.02468,-0.09769 -0.03925,-0.14527 -0.01458,-0.04758 -0.03093,-0.09424 -0.04842,-0.140173 -0.0175,-0.04594 -0.03616,-0.0908 -0.05658,-0.135077 -0.02042,-0.04428 -0.04241,-0.08787 -0.06575,-0.130489 -0.02233,-0.04364 -0.04572,-0.0862 -0.07034,-0.12743 -0.02462,-0.04123 -0.05057,-0.08096 -0.07748,-0.119784 -0.02691,-0.03882 -0.05491,-0.07674 -0.08411,-0.113158 -0.0292,-0.03642 -0.05925,-0.07151 -0.09073,-0.105512 -0.03148,-0.034 -0.06411,-0.06679 -0.09787,-0.09838 -0.03376,-0.03159 -0.06896,-0.06205 -0.105002,-0.09124 -0.03604,-0.02918 -0.07331,-0.05734 -0.11163,-0.08411 -0.03832,-0.02677 -0.07766,-0.0521 -0.118255,-0.07645 -0.0406,-0.02435 -0.08175,-0.047 -0.123862,-0.06831 -0.04212,-0.0213 -0.08532,-0.04138 -0.128959,-0.05964 -0.04364,-0.01826 -0.08788,-0.03474 -0.133038,-0.04995 -0.04516,-0.01521 -0.09094,-0.02912 -0.137624,-0.04129 -0.04669,-0.01216 -0.09451,-0.02248 -0.142722,-0.0316 -0.0482,-0.0091 -0.09708,-0.01686 -0.1468,-0.02293 -0.04972,-0.0061 -0.100137,-0.01072 -0.151387,-0.01376 -0.05125,-0.0031 -0.1032,-0.0046 -0.155975,-0.0046 z" /><g
       id="g1854"
       transform="matrix(0.98637056,0,0,0.98637056,-7.0505586,-85.161809)"
       style="font-size:12.3472px;line-height:1.25;stroke-width:0.264583"><path
         id="rect1583"
         style="fill:#ffce00;fill-opacity:1;stroke:none;stroke-width:1.465;stroke-linecap:round;stroke-linejoin:round;stroke-dasharray:none;stroke-opacity:1;paint-order:markers stroke fill"
         d="m 50.834106,84.144218 h -1.723409 v 11.363647 c 1.042423,-0.721515 1.723409,-1.925171 1.723409,-3.294372 z" /><path
         id="path1767"
         style="fill:#dd0000;fill-opacity:1;stroke:none;stroke-width:1.465;stroke-linecap:round;stroke-linejoin:round;stroke-dasharray:none;stroke-opacity:1;paint-order:markers stroke fill"
         d="m 49.110697,72.794006 v 11.350212 h 1.723409 V 72.794006 Z" /><path
         id="path1764"
         style="fill:#000000;fill-opacity:1;stroke:none;stroke-width:1.465;stroke-linecap:round;stroke-linejoin:round;stroke-dasharray:none;stroke-opacity:1;paint-order:markers stroke fill"
         d="m 49.110697,61.443795 v 11.350211 h 1.723409 v -8.055322 c 0,-1.369204 -0.680985,-2.573373 -1.723409,-3.294889 z" /></g><path
       id="path2646"
       style="font-size:12.3472px;line-height:1.25;fill:#000000;fill-opacity:1;stroke:none;stroke-width:0.346256;stroke-linecap:round;stroke-linejoin:round;stroke-dasharray:none;stroke-opacity:1;paint-order:markers stroke fill"
       d="m 92.385059,-13.655555 c -0.524338,0 -0.946196,0.42186 -0.946196,0.946195 v 6.4936609 c 0,0.5243362 0.421858,0.9467122 0.946196,0.9467122 h 6.49366 c 0.524336,0 0.946712,-0.422376 0.946712,-0.9467122 V -12.70936 c 0,-0.524335 -0.422376,-0.946195 -0.946712,-0.946195 z m 1.955435,6.1794677 c 0.22225,0 0.411527,0.082383 0.567924,0.2470133 0.164632,0.1563985 0.247014,0.3456743 0.247014,0.567924 0,0.2222498 -0.08238,0.4156975 -0.247014,0.5803264 -0.156397,0.1563985 -0.345674,0.234611 -0.567924,0.234611 -0.222252,0 -0.415697,-0.078212 -0.580326,-0.234611 -0.156398,-0.1646289 -0.234611,-0.3580766 -0.234611,-0.5803264 0,-0.2222497 0.07821,-0.4115255 0.234611,-0.567924 0.164629,-0.1646307 0.358074,-0.2470133 0.580326,-0.2470133 z m 3.913973,0 c 0.22225,0 0.411527,0.082383 0.567924,0.2470133 0.164629,0.1563985 0.247014,0.3456745 0.247014,0.567924 0,0.2222496 -0.08239,0.4156976 -0.247014,0.5803264 -0.156397,0.1563983 -0.345674,0.234611 -0.567924,0.234611 -0.222248,0 -0.415695,-0.078213 -0.580326,-0.234611 -0.156397,-0.1646288 -0.234611,-0.3580768 -0.234611,-0.5803264 0,-0.2222495 0.07821,-0.4115255 0.234611,-0.567924 0.164631,-0.1646304 0.358078,-0.2470133 0.580326,-0.2470133 z"
       sodipodi:nodetypes="sssssssssscssscsssscssscsss" /><g
       aria-label="de
em
oji"
       transform="matrix(0.26458333,0,0,0.26458333,3.7041666,-27.976128)"
       id="text2648"
       style="font-size:46.6667px;line-height:1.25;white-space:pre;shape-inside:url(#rect2650)"><path
         d="m 319.29964,53.500244 q -3.64,0 -6.58,-1.680001 -2.89334,-1.726668 -4.62001,-4.66667 -1.68,-2.940002 -1.68,-6.626671 0,-3.686669 1.54,-6.580004 1.58667,-2.940002 4.29334,-4.620004 2.70667,-1.726667 6.11334,-1.726667 2.75333,0 5.08667,1.166667 2.33333,1.120001 3.92,3.080002 V 19.246888 q 0,-1.073334 0.65333,-1.726668 0.7,-0.653334 1.72667,-0.653334 1.07334,0 1.72667,0.653334 0.65333,0.653334 0.65333,1.726668 v 21.280014 q 0,3.686669 -1.72666,6.626671 -1.68001,2.940002 -4.57334,4.66667 -2.89334,1.680001 -6.53334,1.680001 z m 0,-4.200003 q 2.38,0 4.24667,-1.12 1.86667,-1.166668 2.94,-3.173336 1.07334,-2.006668 1.07334,-4.480003 0,-2.520002 -1.07334,-4.480003 -1.07333,-1.960001 -2.94,-3.080002 -1.86667,-1.166667 -4.24667,-1.166667 -2.33333,0 -4.24667,1.166667 -1.86667,1.120001 -2.98667,3.080002 -1.07333,1.960001 -1.07333,4.480003 0,2.473335 1.07333,4.480003 1.12,2.006668 2.98667,3.173336 1.91334,1.12 4.24667,1.12 z"
         style="font-weight:bold;font-family:Comfortaa;-inkscape-font-specification:'Comfortaa Bold'"
         id="path2654" /><path
         d="m 352.52629,53.500244 q -3.87334,0 -6.90667,-1.633334 -2.98667,-1.680001 -4.71334,-4.573337 -1.68,-2.940002 -1.68,-6.720004 0,-3.826669 1.58667,-6.720005 1.63333,-2.940002 4.48,-4.573336 2.84667,-1.680001 6.53334,-1.680001 3.64,0 6.25334,1.633334 2.61333,1.586668 3.96667,4.433336 1.4,2.800002 1.4,6.486672 0,0.886667 -0.60667,1.493334 -0.60667,0.56 -1.54,0.56 h -18.80668 v -3.733336 h 18.66668 l -1.91334,1.306668 q -0.0467,-2.333335 -0.93333,-4.153336 -0.88667,-1.866668 -2.52,-2.940002 -1.63334,-1.073334 -3.96667,-1.073334 -2.66,0 -4.57334,1.166667 -1.86666,1.166668 -2.84667,3.220002 -0.98,2.006668 -0.98,4.573337 0,2.566668 1.16667,4.573336 1.16667,2.006668 3.22,3.173336 2.05334,1.166667 4.71334,1.166667 1.44667,0 2.94,-0.513333 1.54,-0.560001 2.47334,-1.260001 0.7,-0.513334 1.49333,-0.513334 0.84,-0.04667 1.44667,0.466667 0.79333,0.7 0.84,1.540001 0.0467,0.840001 -0.74667,1.446668 -1.58667,1.260001 -3.96667,2.053334 -2.33333,0.793334 -4.48,0.793334 z"
         style="font-weight:bold;font-family:Comfortaa;-inkscape-font-specification:'Comfortaa Bold'"
         id="path2656" /><path
         d="m 380.35405,54.473098 q -3.87333,0 -6.90667,-1.63333 -2.98667,-1.68 -4.71334,-4.57334 -1.68,-2.94 -1.68,-6.72 0,-3.826673 1.58667,-6.720008 1.63333,-2.940002 4.48,-4.573337 2.84667,-1.680001 6.53334,-1.680001 3.64,0 6.25334,1.633334 2.61333,1.586668 3.96667,4.433337 1.4,2.800002 1.4,6.486675 0,0.88666 -0.60667,1.49333 -0.60666,0.56 -1.54,0.56 h -18.80668 v -3.733335 h 18.66668 l -1.91333,1.306667 q -0.0467,-2.333335 -0.93334,-4.153336 -0.88666,-1.866668 -2.52,-2.940002 -1.63333,-1.073334 -3.96667,-1.073334 -2.66,0 -4.57334,1.166668 -1.86666,1.166667 -2.84666,3.220002 -0.98,2.006668 -0.98,4.57334 0,2.56666 1.16666,4.57333 1.16667,2.00667 3.22001,3.17334 2.05333,1.16667 4.71333,1.16667 1.44667,0 2.94,-0.51334 1.54,-0.56 2.47334,-1.26 0.7,-0.51333 1.49333,-0.51333 0.84,-0.0467 1.44667,0.46666 0.79333,0.7 0.84,1.54001 0.0467,0.84 -0.74667,1.44666 -1.58666,1.26 -3.96667,2.05334 -2.33333,0.79333 -4.48,0.79333 z"
         style="font-weight:bold;font-family:Comfortaa;-inkscape-font-specification:'Comfortaa Bold'"
         id="path2658" /><path
         d="m 430.84743,54.333098 q -1.02666,0 -1.72666,-0.65333 -0.65334,-0.7 -0.65334,-1.72667 V 38.606422 q 0,-2.940002 -1.44667,-4.340003 -1.44666,-1.446667 -3.78,-1.446667 -2.42667,0 -4.01333,1.680001 -1.54001,1.680001 -1.54001,4.293336 h -3.87333 q 0,-3.033335 1.30667,-5.320004 1.30666,-2.333335 3.64,-3.640002 2.38,-1.306668 5.41334,-1.306668 2.66,0 4.71333,1.166668 2.05334,1.166667 3.17334,3.453335 1.16667,2.240002 1.16667,5.460004 v 13.346676 q 0,1.02667 -0.65334,1.72667 -0.65333,0.65333 -1.72667,0.65333 z m -31.12668,0 q -1.02667,0 -1.72667,-0.65333 -0.65334,-0.7 -0.65334,-1.72667 V 31.186417 q 0,-1.073334 0.65334,-1.726668 0.7,-0.653333 1.72667,-0.653333 1.07333,0 1.72666,0.653333 0.65334,0.653334 0.65334,1.726668 v 20.766681 q 0,1.02667 -0.65334,1.72667 -0.65333,0.65333 -1.72666,0.65333 z m 15.58667,0 q -1.02666,0 -1.72666,-0.65333 -0.65334,-0.7 -0.65334,-1.72667 V 38.606422 q 0,-2.940002 -1.44667,-4.340003 -1.44666,-1.446667 -3.78,-1.446667 -2.42667,0 -4.01333,1.680001 -1.58667,1.680001 -1.58667,4.293336 h -2.94 q 0,-3.033335 1.21333,-5.320004 1.21333,-2.333335 3.36,-3.640002 2.14667,-1.306668 4.90001,-1.306668 2.66,0 4.71333,1.166668 2.05334,1.166667 3.17334,3.453335 1.16666,2.240002 1.16666,5.460004 v 13.346676 q 0,1.02667 -0.65333,1.72667 -0.65333,0.65333 -1.72667,0.65333 z"
         style="font-weight:bold;font-family:Comfortaa;-inkscape-font-specification:'Comfortaa Bold'"
         id="path2660" /><path
         d="m 321.18873,113.50662 q -3.78,0 -6.67334,-1.63334 -2.89333,-1.68 -4.57333,-4.57334 -1.63334,-2.94 -1.63334,-6.72 0,-3.826668 1.63334,-6.719998 1.68,-2.940014 4.57333,-4.573344 2.89334,-1.68 6.67334,-1.68 3.73334,0 6.62667,1.68 2.89334,1.63333 4.52667,4.573344 1.68,2.89333 1.68,6.719998 0,3.78 -1.63333,6.72 -1.63334,2.89334 -4.52667,4.57334 -2.89334,1.63334 -6.67334,1.63334 z m 0,-4.20001 q 2.42667,0 4.29334,-1.12 1.86667,-1.12 2.89333,-3.08 1.07334,-1.96 1.07334,-4.52667 0,-2.566668 -1.07334,-4.526668 -1.02666,-2.00667 -2.89333,-3.126674 -1.86667,-1.12 -4.29334,-1.12 -2.42667,0 -4.29333,1.12 -1.86667,1.120004 -2.94001,3.126674 -1.07333,1.96 -1.07333,4.526668 0,2.56667 1.07333,4.52667 1.07334,1.96 2.94001,3.08 1.86666,1.12 4.29333,1.12 z"
         style="font-weight:bold;font-family:Comfortaa;-inkscape-font-specification:'Comfortaa Bold'"
         id="path2662" /><path
         d="m 334.58204,124.23996 c -0.68445,0 -1.24445,-0.23333 -1.68,-0.7 -0.43556,-0.43556 -0.65334,-0.99556 -0.65334,-1.68001 0,-0.71555 0.21778,-1.29111 0.65334,-1.72666 0.43555,-0.43556 0.99555,-0.65334 1.68,-0.65334 1.24445,0 2.33334,-0.28 3.26667,-0.84 0.93333,-0.52889 1.66444,-1.26 2.19333,-2.19333 0.56,-0.93333 0.84,-2.00667 0.84,-3.22001 V 90.173268 c 0,-0.71556 0.21778,-1.291117 0.65334,-1.72667 0.46667,-0.43556 1.04222,-0.65334 1.72667,-0.65334 0.71555,0 1.29111,0.21778 1.72666,0.65334 0.43556,0.435553 0.65334,1.01111 0.65334,1.72667 v 23.053342 c 0,2.14667 -0.48222,4.04445 -1.44667,5.69334 -0.93333,1.64889 -2.22445,2.94001 -3.87334,3.87334 -1.64889,0.96445 -3.56222,1.44667 -5.74,1.44667 z"
         style="font-weight:bold;font-family:Comfortaa;-inkscape-font-specification:'Comfortaa Bold'"
         id="path2664"
         sodipodi:nodetypes="scsssccsscssssccs" /><path
         d="m 357.35542,113.31995 c -0.68445,0 -1.26,-0.21778 -1.72667,-0.65334 -0.43555,-0.46667 -0.65333,-1.04222 -0.65333,-1.72666 V 90.173268 c 0,-0.71556 0.21778,-1.291117 0.65333,-1.72667 0.46667,-0.43556 1.04222,-0.65334 1.72667,-0.65334 0.71555,0 1.29111,0.21778 1.72667,0.65334 0.43555,0.435553 0.65333,1.01111 0.65333,1.72667 v 20.766682 c 0,0.68444 -0.21778,1.25999 -0.65333,1.72666 -0.43556,0.43556 -1.01112,0.65334 -1.72667,0.65334 z"
         style="font-weight:bold;font-family:Comfortaa;-inkscape-font-specification:'Comfortaa Bold'"
         id="path2666"
         sodipodi:nodetypes="scsscsssscs" /></g></g></svg>
